<svg
	xmlns="http://www.w3.org/2000/svg"
	viewBox="0 -100 935 935"
	style="enable-background: new 0 0 935 935"
	xml:space="preserve"
>
	<path
		d="M470 618s288 15 345-42c57-56-4-201-4-201s40-172 30-192-210 6-210 6-131 12-161 18c-29-6-161-18-161-18s-200-27-210-6 31 192 31 192-61 145-4 201c56 57 344 42 344 42z"
		fill="#ff7357"
	/>
	<path
		d="M470 197c-297 0-349 328-344 379 24 26 82 37 112 19 29-47 28-184 232-184s203 137 233 184c30 18 88 7 112-19 5-51-47-379-345-379z"
		fill="white"
	/>
	<path
		d="M420 588c0-27 23-50 50-50 28 0 51 22 51 50-13 16-51 30-51 30s-34-13-50-30zM371 325c-90-21-214 234-172 268 3 3 193-177 199-192 7-42 0-68-27-76zM570 325c89-21 214 234 172 268-4 3-194-177-199-192-7-42 0-68 27-76zM632 188c22-8 155-26 190-30 22-2 43 14 37 36l-47 180c-2 6-25-21-22-37l34-136c3-11-7-11-22-10l-138 16c-12 2-39-16-32-19zM309 188c-22-8-155-26-190-30-22-2-43 14-37 36 3 13 38 153 47 180 2 6 25-21 21-37l-34-136c-3-11 8-11 23-10l138 16c12 2 39-16 32-19z"
		fill="#2b3c3f"
	/>
</svg>
